<?xml version="1.0" encoding="utf-8"?>
<!-- Generator: Adobe Illustrator 25.1.0, SVG Export Plug-In . SVG Version: 6.00 Build 0)  -->
<svg version="1.1" id="Layer_1" xmlns="http://www.w3.org/2000/svg" xmlns:xlink="http://www.w3.org/1999/xlink" x="0px" y="0px"
	 viewBox="0 0 500 500" style="enable-background:new 0 0 500 500;" xml:space="preserve">
<g>
	<g>
		<g>
			<path d="M277,475.5c3.1,3.6,5.6,7.7,7.5,12.1c0.5,1.2,1.2,2.3,2.6,2.6c1.4,0.3,3.1-0.5,3.4-2c0.4-1.8-1.2-3.3-3-2.9
				c-1.5,0.4-2.4,2.1-1.6,3.5c0.6,0.9,1.8,1.3,2.7,0.7c0.9-0.5,1.3-1.8,0.7-2.7c0,0.1,0.1,0.2,0.1,0.3c0,0.4,0,0.7,0,1.1
				c-0.2,0.8-1.3,1.4-2.1,0.9c-0.2-0.2-0.5-0.5-0.7-0.7c0.2-0.6,0.3-1.3,0.5-1.9c0.1-0.1,0.3-0.1,0.5-0.1c0.2,0,0.4,0,0.5,0.1
				c0.2,0.2,0.3,0.2,0.1,0.1c-0.1-0.1-0.1-0.1,0,0c0.1,0.1,0.1,0-0.1-0.1c0-0.1-0.1-0.2-0.2-0.4c-0.3-0.7-0.6-1.3-0.9-2
				c-0.6-1.3-1.3-2.7-2.1-3.9c-1.6-2.6-3.4-5.1-5.3-7.4c-0.7-0.8-2.1-0.7-2.8,0C276.1,473.5,276.2,474.7,277,475.5L277,475.5z"/>
		</g>
	</g>
	<g>
		<g>
			<path d="M350.3,473.8c0.5,0,1,0,1.5,0c0.3,0,0.5,0,0.8-0.2c0.2-0.1,0.5-0.2,0.6-0.4c0.2-0.2,0.3-0.4,0.4-0.6
				c0.1-0.2,0.2-0.5,0.2-0.8c0-0.2,0-0.4-0.1-0.5c-0.1-0.3-0.3-0.6-0.5-0.9c-0.1-0.1-0.3-0.2-0.4-0.3c-0.3-0.2-0.6-0.3-1-0.3
				c-0.5,0-1,0-1.5,0c-0.3,0-0.5,0-0.8,0.2c-0.2,0.1-0.5,0.2-0.6,0.4c-0.2,0.2-0.3,0.4-0.4,0.6c-0.1,0.2-0.2,0.5-0.2,0.8
				c0,0.2,0,0.4,0.1,0.5c0.1,0.3,0.3,0.6,0.5,0.9c0.1,0.1,0.3,0.2,0.4,0.3C349.7,473.7,350,473.8,350.3,473.8L350.3,473.8z"/>
		</g>
	</g>
	<g>
		<g>
			<path d="M349.4,475c7.4,5.4,13.9,12,19.2,19.5c0.5,0.7,1.4,1.3,2.3,0.9c15.5-6.1,31.1-11.8,46.9-17.2c4.5-1.5,9.1-3,13.7-4.5
				c2.4-0.8,1.4-4.7-1.1-3.9c-15.8,5.1-31.6,10.6-47.1,16.5c-4.5,1.7-9,3.4-13.4,5.2c0.8,0.3,1.5,0.6,2.3,0.9
				c-5.8-8-12.7-15-20.7-20.9c-0.9-0.6-2.2-0.1-2.7,0.7C348,473.3,348.5,474.4,349.4,475L349.4,475z"/>
		</g>
	</g>
	<g>
		<g>
			<g>
				<path d="M168.4,83.9c18.1-16.2,44.5-21.2,67.8-15.2c12.1,3.2,23.8,9.3,32.1,19c4.4,5.1,7.5,11.3,9.6,17.7
					c2.2,6.7,3.7,13.7,4.6,20.7c0.8,7.1,0.6,14.3-2.8,20.7c-3,5.8-7.7,10.5-12.6,14.8c-10,8.7-21.8,15.5-34.6,19.1
					c-24.7,7-54,0.8-69.4-21.1c-7.1-10.1-10.8-22.7-9-35c1.9-13.1,9-24.8,17-35c2-2.6,4.2-5.1,6.3-7.5c1.7-1.9-1.1-4.8-2.8-2.8
					c-9.2,10.5-17.9,22-22.3,35.4c-4.3,13-3.3,26.8,2.6,39.2c5.8,12.1,15.9,21.7,28,27.4c12.6,5.9,26.9,7.6,40.6,5.6
					c13.8-2,27-7.9,38.3-16c11.2-8,22.8-18.6,24.7-33c1-7.6-0.4-15.4-2-22.8c-1.5-7.2-3.7-14.3-7.2-20.8
					c-6.5-12.3-17.9-20.8-30.6-26c-11.9-4.9-25.1-6.7-37.8-5.5c-12.8,1.2-25.3,5.4-36,12.6c-2.6,1.8-5.1,3.7-7.4,5.8
					C163.7,82.8,166.5,85.6,168.4,83.9L168.4,83.9z"/>
			</g>
		</g>
		<g>
			<g>
				<path d="M191.3,185.4c-1.2,9.2-7.1,17.6-15.3,21.9c-2.3,1.2-0.3,4.7,2,3.5c9.5-5.1,15.9-14.7,17.3-25.4c0.1-1.1-1-2-2-2
					C192.1,183.4,191.5,184.3,191.3,185.4L191.3,185.4z"/>
			</g>
		</g>
		<g>
			<g>
				<path d="M235.3,183.9c-0.7,11.2,4.1,22.5,12.6,29.8c1.9,1.7,4.8-1.1,2.8-2.8c-7.8-6.7-12-16.8-11.4-27
					C239.5,181.3,235.5,181.3,235.3,183.9L235.3,183.9z"/>
			</g>
		</g>
		<g>
			<g>
				<path d="M174.8,208.7c-13.8-0.5-27.6-1-41.3-1.5c-3.5-0.1-7-0.2-10.5-0.4c-3.3-0.1-6.5-0.4-9.8-0.2c-3.1,0.2-6.1,0.9-8.9,2.2
					c-2.7,1.3-5.1,3.2-7.4,5.2c-17,14.7-29.2,34.4-38.5,54.7c-4.7,10.3-8.8,20.9-12.6,31.6c-4.1,11.6-8.4,23.3-10.7,35.3
					c-1.2,6-2.1,12.4-1.3,18.5c0.7,5.8,3.2,10.7,7.9,14.2c4.7,3.4,10.6,5.2,16.1,6.9c5.9,1.8,12,3.2,18.1,4.4
					c24.6,4.6,49.9,4.9,74.2,10.9c2.9,0.7,5.8,1.5,8.7,2.4c2.5,0.8,3.5-3.1,1.1-3.9c-23.4-7.3-48.1-8.1-72.2-11.6
					c-11.9-1.7-23.7-4.1-35-8.2c-5-1.8-10.3-4.1-13-9c-2.6-4.7-2.4-10.6-1.9-15.8c1.2-12.4,5.4-24.3,9.4-36
					c3.5-10.4,7.3-20.7,11.6-30.8c8.5-20,19.3-39.4,34.7-54.9c3.8-3.9,7.9-8,12.8-10.4c5.6-2.7,12.4-1.7,18.4-1.5
					c13.4,0.5,26.7,0.9,40.1,1.4c3.3,0.1,6.6,0.2,10,0.4C177.4,212.8,177.4,208.8,174.8,208.7L174.8,208.7z"/>
			</g>
		</g>
		<g>
			<g>
				<path d="M174.1,212.5c3.7,4.3,8.8,7,14.1,9.1c5.8,2.3,11.7,4.5,17.7,6.1c6.3,1.7,12.7,2.4,19.1,1.3c6-0.9,11.6-3.3,16.9-6.1
					c3-1.6,5.8-3.3,8.6-5.1c2.7-1.7,6.2-3.4,7.9-6.3c1.3-2.2-2.2-4.3-3.5-2c-0.6,1.1-1.7,1.8-2.8,2.5c-1.2,0.8-2.4,1.6-3.6,2.4
					c-2.3,1.5-4.7,2.9-7.1,4.3c-4.9,2.7-10.1,5.1-15.6,6.2c-11.8,2.5-23.5-2.1-34.4-6.2c-5.4-2-10.7-4.5-14.5-9
					C175.2,207.7,172.4,210.6,174.1,212.5L174.1,212.5z"/>
			</g>
		</g>
		<g>
			<g>
				<path d="M259.8,213.2c18.3,5.8,37.7,8.2,56.8,6.9c8.1-0.6,16.4-1.8,24-4.9c7.6-3.1,14.1-8.1,18.6-15.1c4.6-7.2,7-15.6,8.8-23.8
					c1.8-8.3,2.9-16.8,3.4-25.3c0.9-16.8-0.8-33.8-4.9-50.2c-4.2-16.5-10.8-32.3-19.8-46.8c-1.1-1.8-2.2-3.5-3.4-5.2
					c-1.4-2.1-4.9-0.1-3.5,2c9.2,13.6,16.3,28.5,20.9,44.2c4.7,15.7,7,32.1,6.8,48.5c-0.1,8.2-0.8,16.3-2.1,24.4
					c-1.3,8-3,16.2-6.3,23.7c-3.2,7.3-8.1,13.5-15.1,17.5c-6.7,3.8-14.4,5.6-22,6.5c-18.1,2.1-36.8,0.5-54.5-4.3
					c-2.3-0.6-4.5-1.3-6.7-2C258.4,208.6,257.4,212.4,259.8,213.2L259.8,213.2z"/>
			</g>
		</g>
		<g>
			<g>
				<path d="M341.8,51.9c16.4,3.1,33.6-1.6,46.1-12.6c1.9-1.7-0.9-4.5-2.8-2.8c-11.4,10-27.3,14.4-42.2,11.6
					C340.3,47.6,339.3,51.4,341.8,51.9L341.8,51.9z"/>
			</g>
		</g>
		<g>
			<g>
				<path d="M384.5,40.2c13.2,30,26.6,60.4,32.4,92.8c2.8,15.6,3.7,31.6,2,47.4c-1.7,16.2-6.7,31.5-14.2,45.9
					c-6.1,11.7-12.8,23.2-23.8,30.9c-7.4,5.2-16.1,8.6-24,12.9c-10.1,5.5-19.8,11.5-28.8,18.7c-8.9,7.1-16.6,15.3-21.4,25.6
					c-5.3,11.2-8.2,23.5-9.9,35.8c-1.7,12.4-2.3,25.1-0.8,37.6c0.3,2.6,0.7,5.3,1.2,7.9c0.4,2.2,4.2,1.7,3.9-0.5
					c-0.2-1.4-0.3-2.8-0.5-4.3c-0.3-2.5-4.3-2.6-4,0c0.2,1.4,0.3,2.8,0.5,4.3c1.3-0.2,2.6-0.4,3.9-0.5c-2.4-11.8-2.3-24.1-1.3-36
					c1.1-12.7,3.6-25.4,8.2-37.3c2-5.1,4.4-10.1,7.6-14.5c3.4-4.6,7.5-8.7,11.8-12.4c8.8-7.6,18.8-13.9,28.9-19.5
					c7.7-4.3,16.1-7.7,23.6-12.4c5.1-3.2,9.7-7,13.6-11.5c4.4-5,7.8-10.6,11.1-16.4c7.9-14.1,14.1-28.9,16.9-44.9
					c2.7-15.7,2.7-31.7,0.8-47.5c-4.1-32.6-16.5-63.3-29.5-93.2c-1.6-3.7-3.2-7.4-4.8-11C386.9,35.8,383.5,37.9,384.5,40.2
					L384.5,40.2z"/>
			</g>
		</g>
		<g>
			<g>
				<path d="M355.6,48c-5-4.1-9.1-9.4-11.6-15.4c-0.5-1.2-1.3-2.7-1.3-4.1c0-1.2,1.1-0.7,1.8-0.3c1.3,0.8,2.3,2.1,3.2,3.3
					c1.1,1.5,2,3.1,2.8,4.8c0.8,1.7,4,1,3.7-1c-0.5-3.9-1-7.9-1.6-11.8c-0.5-3.5-1.1-7.3,0.2-10.7c0.5-1.2,1.2-2.4,2.2-3.3
					c0.3-0.3,1.1-1,1.6-0.9c0.4,0,0.5,0.5,0.8,0.9c1.8,3.3,3.3,6.7,4.4,10.2c0.7,2.2,3.7,1.7,3.9-0.5c0.3-3.7,1.2-10.5,6.4-9.9
					c-0.3-0.1-0.7-0.2-1-0.3c-0.3-0.2-0.1-0.3-0.2-0.1c-0.1,0.1,0,0.5,0,0.7c0,0.6,0,1.2,0.1,1.7c0.3,1.2,1.1,2.2,2.3,2.5
					c0.6,0.2,1.3,0.1,1.9-0.2c0.6-0.3,0.9-0.8,1.4-1.1c-0.5,0.3,0.4-0.1,0.5,0.2c0.1,1.3,1.7,2.7,3,1.7c1.7-1.2,3.3-2.5,5-3.7
					c0.6-0.5,0.8-0.9,1.4-0.4c0.5,0.4,1,1,1.3,1.5c1.5,2.4,1.6,5.5,1.2,8.3c-0.4,3.2-1.5,6.4-2.6,9.4c-1.3,3.3-2.9,6.4-5.4,9
					c-1.8,1.9,1.1,4.7,2.8,2.8c3-3.2,5-7.1,6.6-11.2c1.4-3.8,2.6-7.8,2.8-11.8c0.2-3.8-0.7-7.6-3.4-10.4c-1.5-1.6-3.7-2.6-5.8-1.4
					c-2.1,1.2-4,3-5.9,4.4c1,0.6,2,1.2,3,1.7c-0.2-1.9-1.3-3.4-3.2-3.9c-0.8-0.2-1.7-0.2-2.5,0c-0.9,0.3-1.4,1.1-2.1,1.4
					c0.3-0.1,0.7-0.2,1-0.3c0.3,0,0.5,0.6,0.7,0.3c0-0.1,0-0.3,0-0.4c0.1-0.5,0-1,0-1.5c-0.1-1-0.5-1.9-1.3-2.5
					c-1.8-1.3-4.8-0.4-6.5,0.7c-4.3,2.8-5,7.9-5.4,12.6c1.3-0.2,2.6-0.4,3.9-0.5c-0.7-2.2-1.6-4.3-2.5-6.4c-0.9-1.9-1.7-4.1-3-5.8
					c-2.9-3.9-7.6-0.7-9.7,2.3c-2.4,3.5-2.7,7.9-2.2,12.1c0.5,4.9,1.3,9.8,1.9,14.6c1.2-0.3,2.5-0.7,3.7-1c-1-2.1-2.2-4-3.6-5.9
					c-1.2-1.6-2.6-3.1-4.4-4c-1.9-0.9-4.2-1-5.8,0.6c-1.4,1.4-1.5,3.6-1.1,5.4c0.9,3.9,3.1,7.8,5.3,11.1c2.4,3.5,5.2,6.6,8.4,9.2
					c0.8,0.7,2,0.8,2.8,0C356.3,50.2,356.5,48.7,355.6,48L355.6,48z"/>
			</g>
		</g>
		<g>
			<g>
				<path d="M166,357.1c-3.1,6.6-7.7,12.5-9.8,19.5c-0.9,3.1-1.4,6.4-1.1,9.6c0.2,1.6,0.4,3.1,1,4.6c0.3,0.7,0.6,1.5,1,2.2
					c0.2,0.4,1.2,1.6,1.2,1.8c0.1-0.3,0.2-0.7,0.3-1c0,0.1-0.1,0.2-0.1,0.3c0.2-0.2,0.5-0.5,0.7-0.7c0,0-0.1,0.1-0.1,0.1
					c0.3-0.1,0.7-0.2,1-0.3c0,0-0.1,0-0.1,0c0.3,0.1,0.7,0.2,1,0.3c0,0-0.1-0.1-0.1-0.1c0.2,0.2,0.5,0.5,0.7,0.7
					c-0.1-0.1-0.1-0.2-0.2-0.3c0.1,0.3,0.2,0.7,0.3,1c0,0,0-0.1,0-0.1c-0.2,0.5-0.4,0.9-0.6,1.4c0,0,0-0.1,0.1-0.1
					c-0.5,0.2-0.9,0.4-1.4,0.6c0.1,0,0.1,0,0.2,0c2.6,0.2,2.6-3.8,0-4c-2.5-0.2-2.8,3.3-0.9,4.3c0.9,0.5,2,0.3,2.7-0.4
					c0.9-0.9,0.9-2.3,0.3-3.3c-0.4-0.8-1-1.4-1.4-2.2c-0.5-0.8-0.8-1.7-1-2.7c-0.5-1.8-0.6-3.7-0.4-5.5c0.6-8.8,6.8-15.9,10.4-23.6
					C170.5,356.8,167.1,354.7,166,357.1L166,357.1z"/>
			</g>
		</g>
		<g>
			<g>
				<path d="M164,369.3c7.5-3.2,15.3-5.5,23.3-7c1-0.2,2-0.4,3-0.5c0.5-0.1,0.9-0.2,1.4-0.2c0.2,0,0.4,0,0.6,0
					c-0.2-0.1-0.3-0.2-0.3-0.4c-0.1,0,0.1-0.2-0.2,0.3c-0.2,0.2-0.3,0.5-0.5,0.7c-0.6,0.6-1.3,1-2,1.4c-3.2,1.9-6.9,3.1-10.6,3.5
					c0.2,1.3,0.4,2.6,0.5,3.9c6.2-1,15.1-2,18.7,4.6c0.6-1,1.2-2,1.7-3c-2.7,0.3-5.2,1.4-7,3.5c-0.9,1.1-0.7,3,0.9,3.3
					c1.3,0.3,2.6,0.6,3.9,0.9c0.6,0.1,1.2,0.3,1.7,0.4c0.1,0,0.8,0.4,0.9,0.3c0,0,0.1-0.8,0.1-0.8c0,0-0.3,0.3-0.4,0.3
					c-0.5,0.2-0.9,0.5-1.4,0.7c-1.2,0.5-2.3,0.7-3.6,0.7c-2.4,0-2.6,3.1-0.5,3.9c1.4,0.5,2.9,0.4,4.4,0.4c0.4,0,0.9,0.2,1.2,0.2
					c0.1,0,0.1,0.1,0.2,0.1c0-0.1,0-0.1-0.1-0.2c0-0.1,0-0.1,0.1-0.2c-0.1,0.3,0.2,0.2,0.8-0.2c-1-0.2-2.3,0.3-2.5,1.4
					c-0.4,2.1,0.8,3.7,2.7,4.4c0.5,0.2,1.2,0.5,1.8,0.6c0,0,0-0.3-0.1-0.2c-0.2,0.1-0.3,0.4-0.6,0.5c-0.7,0.4-1.7,0.2-2.4,0.1
					c-1-0.1-2.1-0.1-3.1,0.1c-1.9,0.4-3.4,1.7-5.2,2.3c-7.8,2.4-15.2-3.5-21.8-6.5c-1.9-0.9-3.8-1.5-5.7-2.2
					c-1.2-0.5-2.8-1.1-3.3-2.5c-0.8-2.4-4.7-1.4-3.9,1.1c1.2,3.8,5.1,4.9,8.5,6.1c4.4,1.6,8.3,4.2,12.5,6.1c4.2,1.8,8.7,3,13.2,2.2
					c1.1-0.2,2.1-0.5,3-0.9c1-0.5,2-1.1,3-1.5c2-0.7,4.2,0.3,6.3-0.4c2.1-0.8,4-3,3.4-5.3c-0.3-1.1-1.1-1.9-2-2.4
					c-0.5-0.3-1-0.4-1.6-0.6c-0.1,0-0.5-0.2-0.6-0.2c-0.5,0-0.1-0.7-0.3,0.4c-0.8,0.5-1.6,0.9-2.5,1.4c3.1,0.8,5.3-2.9,3.7-5.5
					c-0.8-1.3-2.2-1.9-3.6-2.1c-1.5-0.2-3,0.2-4.5-0.4c-0.2,1.3-0.4,2.6-0.5,3.9c3,0,9.4-1.3,9.2-5.3c-0.1-1.9-1.7-3-3.3-3.6
					c-1.9-0.6-4.1-1-6.1-1.4c0.3,1.1,0.6,2.2,0.9,3.3c1.1-1.2,2.5-2.1,4.2-2.3c1.5-0.2,2.5-1.6,1.7-3c-1.9-3.5-5.4-5.7-9.1-6.7
					c-4.6-1.2-9.4-0.5-14.1,0.3c-2.2,0.3-1.7,4.2,0.5,3.9c3.8-0.4,7.5-1.4,10.9-3.1c2.7-1.3,6.6-3.5,6.4-7.1c-0.3-4.6-6.4-3-9.2-2.4
					c-4,0.7-7.9,1.7-11.8,2.8c-4.4,1.3-8.7,2.9-13,4.7c-1,0.4-1.2,1.9-0.7,2.7C161.9,369.6,163,369.7,164,369.3L164,369.3z"/>
			</g>
		</g>
		<g>
			<g>
				<path d="M22.1,403.4c28.5,3.1,57.2,3.4,85.9,2.8c28.6-0.6,57.2-2.1,85.8-2.7c28.7-0.5,57.3,0.3,85.8,3.4
					c28.2,3.1,56.6,7.4,85.1,5c13.6-1.2,26.8-4.4,40.1-7.1c12.9-2.6,26.4-4.8,39.5-2.3c3.1,0.6,6.2,1.5,9.2,2.6
					c2.4,0.9,3.5-3,1.1-3.9c-25.3-9.6-52.3,0.9-77.6,5.1c-28.4,4.6-57.3,1.1-85.6-2.2c-14.2-1.6-28.4-3.2-42.7-4
					c-14.3-0.8-28.7-1-43-0.9c-28.9,0.2-57.7,1.7-86.6,2.5c-28.7,0.8-57.4,1-86-1.5c-3.6-0.3-7.3-0.7-10.9-1.1
					C19.5,399.1,19.5,403.1,22.1,403.4L22.1,403.4z"/>
			</g>
		</g>
		<g>
			<g>
				<path d="M185.6,422.9c5.1-1.4,10.4-1.7,15.6-0.8c2.6,0.4,5.1,1.1,7.6,2.1c2.2,0.8,4.6,1.9,6.4,3.5c1.1,1,2.6,3.3,1,4.7
					c-0.8,0.7-2.4,0.9-3.5,1.1c-1.4,0.3-2.8,0.5-4.2,0.6c-5.3,0.5-10.6-0.1-15.6-1.7c-2.7-0.8-5.5-1.9-7.7-3.6
					c-1.7-1.3-3.6-3.3-3-5.6c0.6-2.5-3.2-3.6-3.9-1.1c-1.6,6.4,4.8,10.7,9.8,12.8c6,2.5,12.6,3.7,19.1,3.3c3.2-0.2,6.7-0.6,9.7-1.8
					c2.9-1.2,4.2-4.1,3.6-7.1c-0.6-3.1-3.2-5.1-5.8-6.6c-2.7-1.5-5.7-2.7-8.7-3.5c-7.1-2-14.6-2-21.7-0.1
					C182,419.7,183.1,423.6,185.6,422.9L185.6,422.9z"/>
			</g>
		</g>
		<g>
			<g>
				<path d="M198.8,428c1,0.7,2,1.5,2.9,2.2c0.2,0.1,0.5,0.2,0.7,0.2c0.3,0.1,0.5,0,0.8,0c0.5-0.1,1-0.5,1.2-0.9
					c0.2-0.5,0.4-1,0.2-1.5c-0.1-0.2-0.1-0.3-0.2-0.5c-0.2-0.3-0.4-0.5-0.7-0.7c-1-0.7-2-1.5-2.9-2.2c-0.2-0.1-0.5-0.2-0.7-0.2
					c-0.3-0.1-0.5,0-0.8,0c-0.5,0.1-1,0.5-1.2,0.9c-0.2,0.5-0.4,1-0.2,1.5c0.1,0.2,0.1,0.3,0.2,0.5
					C198.2,427.6,198.5,427.8,198.8,428L198.8,428z"/>
			</g>
		</g>
		<g>
			<g>
				<path d="M206.6,432.5c2.9,0.6,5.8,1.2,8.7,1.9c1,0.2,2.2-0.3,2.5-1.4c0.2-1-0.3-2.2-1.4-2.5c-2.9-0.6-5.8-1.2-8.7-1.9
					c-1-0.2-2.2,0.3-2.5,1.4C205,431,205.5,432.2,206.6,432.5L206.6,432.5z"/>
			</g>
		</g>
		<g>
			<g>
				<path d="M217.4,434.6c9.8-3.5,19.9,1.8,29,5c4.9,1.7,9.9,3.2,15.1,3.2c5.7,0.1,11.1-1.8,16.4-3.5c4.8-1.5,10-3.4,15.1-2.5
					c5.6,1,9.2,6,14.7,7.3c6.1,1.4,12.2-0.7,18-2c5.5-1.2,11-1.1,16.3,0.8c2.8,1,5.5,2.5,7.9,4.4c2.2,1.8,4.1,3.9,6.2,5.8
					c4.1,3.9,8.9,7.4,14.8,6.3c2.5-0.5,1.5-4.3-1.1-3.9c-4.7,0.9-8.7-3.1-11.7-6c-3.9-3.7-7.6-7.3-12.7-9.5
					c-5.1-2.2-10.8-3.2-16.4-2.5c-6,0.8-11.9,3.4-18,3.1c-2.8-0.1-5.2-1.2-7.4-2.8c-2.4-1.7-4.6-3.3-7.4-4.2
					c-5.1-1.7-10.5-0.6-15.5,0.8c-5.3,1.5-10.6,3.8-16.2,4.4c-5.1,0.5-10.1-0.6-14.9-2.2c-10.6-3.5-21.9-9.7-33.3-5.7
					C213.9,431.6,215,435.5,217.4,434.6L217.4,434.6z"/>
			</g>
		</g>
		<g>
			<g>
				<path d="M278.1,475.7c25-6.2,49.8-12.8,74.6-19.7c24.7-6.9,49.3-14.2,73.7-21.8c13.8-4.3,27.6-8.7,41.3-13.2
					c2.4-0.8,1.4-4.7-1.1-3.9c-24.4,8-49,15.7-73.6,23.1c-24.6,7.3-49.2,14.3-74,20.9c-14,3.7-28,7.3-42,10.8
					C274.5,472.5,275.6,476.4,278.1,475.7L278.1,475.7z"/>
			</g>
		</g>
		<g>
			<g>
				<path d="M462.3,423c4.7,5.4,9.4,10.8,14.2,16.2c-0.2-0.6-0.3-1.3-0.5-1.9c0.3-0.7,1-1.1,1.6-0.5c-1.9-1.8-4.7,1.1-2.8,2.8
					c1.7,1.6,4.3,0.8,5.1-1.3c0.3-0.7-0.1-1.4-0.5-1.9c-4.7-5.4-9.4-10.8-14.2-16.2c-0.7-0.8-2.1-0.7-2.8,0
					C461.5,420.9,461.6,422.1,462.3,423L462.3,423z"/>
			</g>
		</g>
		<g>
			<g>
				<path d="M353.5,472.7c7.1-4.3,15.5-5.6,23.3-7.9c8.5-2.5,16.8-5.7,25-9.1c4.7-1.9,9.4-3.9,14.1-5.9c-1-0.4-2-0.8-2.9-1.2
					c3,8.7,7.3,16.9,12.6,24.3c0.6,0.9,1.7,1.3,2.7,0.7c0.9-0.5,1.4-1.9,0.7-2.7c-5.2-7.2-9.3-15-12.2-23.4
					c-0.5-1.3-1.7-1.7-2.9-1.2c-8.2,3.5-16.3,7-24.7,10c-4.2,1.5-8.4,3-12.6,4.3c-4,1.2-8.1,2.2-12.2,3.4c-4.5,1.3-8.9,2.8-13,5.2
					C349.3,470.6,351.3,474.1,353.5,472.7L353.5,472.7z"/>
			</g>
		</g>
		<g>
			<g>
				<path d="M119.3,278.3c-5,7.9-10.1,15.8-15.1,23.8c-2.2,3.6-4.3,7.3-5.7,11.3c-1.3,3.8-2.7,8.7,0.5,11.9c1.4,1.4,3.3,2.5,4.9,3.6
					c1.8,1.2,3.6,2.3,5.4,3.4c3.6,2.2,7.3,4.3,11.1,6.3c7.5,3.9,15.3,7.4,23.2,10.3c9,3.3,18.3,5.9,27.7,7.7
					c2.5,0.5,3.6-3.4,1.1-3.9c-15.9-3.1-31.3-8.3-45.9-15.5c-7.2-3.6-14.2-7.6-21-12.1c-1.3-0.9-3.4-1.8-4.2-3.3
					c-0.9-1.5,0-3.9,0.4-5.4c1-3.8,2.9-7.4,4.9-10.7c5.1-8.6,10.7-17,16.1-25.5C124.2,278.1,120.7,276.1,119.3,278.3L119.3,278.3z"
					/>
			</g>
		</g>
		<g>
			<g>
				<path d="M95.3,379.8c-3.8,8.4-5.5,17.5-4.8,26.7c0.2,2.6,4.2,2.6,4,0c-0.6-8.4,0.8-16.9,4.3-24.6c0.4-1,0.3-2.2-0.7-2.7
					C97.2,378.6,95.8,378.8,95.3,379.8L95.3,379.8z"/>
			</g>
		</g>
		<g>
			<g>
				<path d="M190.5,147.7c1.9,3.3,4.7,5.9,7.8,8.1c3.3,2.3,7,4.3,10.8,5.5c7.1,2.4,15.3,0.3,20.5-5.1c1.8-1.8-1-4.7-2.8-2.8
					c-4.4,4.5-11.1,6-17,3.9c-3.2-1.1-6.3-2.9-9.1-4.8c-2.7-1.8-5.1-4-6.7-6.9C192.7,143.4,189.2,145.4,190.5,147.7L190.5,147.7z"/>
			</g>
		</g>
		<g>
			<g>
				<path d="M221.8,60.9c-0.6-7.8-1.6-16.2-7.4-22c-5.9-6-14.8-7.7-22.9-7.2c-4.5,0.3-8.9,1-13.3,1.9c-3.8,0.7-7.5,1.6-11.2,2.8
					c-7.3,2.3-14.3,5.7-19.9,11c-6.1,5.8-9.7,13.6-13,21.2c-3.6,8.2-7.2,16.5-9.7,25.1c-2.5,9-3.2,18.2-3.1,27.5
					c0.1,9.1,0.5,18.3,0.8,27.4c0.6,18.1,0.9,36.5-3,54.3c-0.5,2.2-1.1,4.4-1.7,6.6c-0.7,2.5,3.2,3.5,3.9,1.1
					c4.8-16.9,5.5-34.6,5.1-52.1c-0.2-8.8-0.6-17.6-0.9-26.5c-0.3-8.9-0.6-18,0.6-26.9c1.2-8.6,4-16.9,7.3-24.9
					c1.6-3.9,3.3-7.8,5-11.7c1.6-3.7,3.3-7.3,5.4-10.8c4-6.5,9.6-11.3,16.4-14.6c6.6-3.2,13.9-4.9,21.2-6.2c8-1.5,16.8-2.7,24.5,0.8
					c3.3,1.5,6.2,3.8,8.1,6.9c1.9,3.2,2.8,6.9,3.3,10.6c0.3,1.8,0.4,3.7,0.5,5.6C218,63.5,222,63.5,221.8,60.9L221.8,60.9z"/>
			</g>
		</g>
		<g>
			<g>
				<path d="M215.8,42.9c6.7-4.6,14.8-6.4,22.8-7.3c8.5-1,17.3-1.4,25.8,0.3c14.3,2.8,25.8,12,33.6,24.1c8.5,13.3,12.1,28.8,13,44.4
					c1.1,18.2-0.7,36.6-1.3,54.8c-0.3,9.4-0.5,18.8-0.7,28.2c-0.2,8.8-0.9,18,0.6,26.7c0.4,2.1,0.9,4.1,1.6,6
					c0.9,2.4,4.8,1.4,3.9-1.1c-3.1-8.4-2.4-17.7-2.2-26.5c0.2-9.6,0.4-19.2,0.7-28.7c0.3-9.5,0.8-19.1,1.2-28.6
					c0.4-9.3,0.8-18.5,0.4-27.8c-0.7-16.3-3.8-32.7-12.2-47c-7.3-12.6-18.5-23.1-32.7-27.3c-8.5-2.5-17.5-2.8-26.3-2.2
					c-8.4,0.6-17,1.8-24.8,5.4c-1.9,0.9-3.7,1.9-5.4,3C211.6,40.9,213.6,44.4,215.8,42.9L215.8,42.9z"/>
			</g>
		</g>
		<g>
			<g>
				<path d="M178.4,108.7c3.3-3.9,9.6-3.3,14-1.8c4.6,1.6,8.5,5.3,9,10.4c0.2,2.2-0.2,4.4-1.4,6.3c-1.3,2.2-3.6,3.3-6,3.9
					c-5.3,1.2-11.8,0.2-15.6-4.1c-1.9-2.2-3-5.1-2.5-8c0.6-3.1,2.5-5.7,4.8-7.8c1.4-1.3-0.7-3.4-2.1-2.1c-5,4.5-7.8,11.4-4.2,17.6
					c3.5,6.1,11,8.3,17.7,7.7c3.2-0.3,6.5-1.2,8.8-3.6c2-2,3.1-4.7,3.3-7.5c0.6-6.1-3.1-11.6-8.4-14.4c-5.7-2.9-15-4.1-19.6,1.4
					C175.1,108.1,177.2,110.2,178.4,108.7L178.4,108.7z"/>
			</g>
		</g>
		<g>
			<g>
				<path d="M182.4,114.8c-0.3,0.3-0.6,0.6-1,0.9c-0.9,0.8,0.2,2,1.2,1.6c4.4-2,9.8-0.6,12.8,3.1c0.8,1,2.2-0.4,1.4-1.4
					c-3.6-4.4-10.1-5.8-15.2-3.4c0.4,0.5,0.8,1,1.2,1.6c0.3-0.3,0.6-0.6,1-0.9C184.8,115.3,183.4,113.9,182.4,114.8L182.4,114.8z"/>
			</g>
		</g>
		<g>
			<g>
				<path d="M205,118.6c0.6-0.7,1.5-0.8,2.4-0.9c0.9-0.2,1.8-0.3,2.8-0.4c2-0.2,4-0.4,6-0.3c2,0,4,0.1,5.9,0.4
					c0.9,0.1,1.9,0.3,2.8,0.5c0.5,0.1,0.9,0.2,1.3,0.3c0.3,0.1,0.6,0.1,0.9,0.2c0.5,0.2,0.6,0.2,0.1,0c-0.1-0.5-0.3-1-0.4-1.5
					c0,0,0,0.1,0,0.1c0.2-0.3,0.5-0.6,0.7-0.9c0,0-0.1,0-0.1,0.1c0.5,0,1,0,1.5,0c0,0-0.1,0-0.1-0.1c-1.6-1.2-3,1.5-1.5,2.6
					c0,0,0.1,0,0.1,0.1c0.4,0.3,1.1,0.2,1.5,0c1-0.5,1.1-1.8,0.5-2.5c-0.7-0.8-2.2-0.9-3.3-1.2c-2.7-0.6-5.4-0.9-8.1-1
					c-2.7-0.1-5.4,0-8,0.3c-2.3,0.3-5.4,0.4-7.1,2.2C201.6,117.9,203.7,120,205,118.6L205,118.6z"/>
			</g>
		</g>
		<g>
			<g>
				<path d="M231.9,108.4c4.2-3,10.5-3.3,15.3-1.7c4.7,1.6,8,6.3,7.2,11.4c-0.7,4.9-5,8.5-9.8,8.8c-2.9,0.2-5.7-0.6-8.4-1.6
					c-1.2-0.4-2.4-0.9-3.3-1.7c-1.1-0.9-1.6-2.2-1.9-3.5c-1.2-4.9,0-10.9,4.2-14.1c0.6-0.5,1-1.3,0.5-2.1c-0.4-0.6-1.4-1-2.1-0.5
					c-4.7,3.6-6.7,9.6-5.9,15.5c0.4,3.2,1.6,6.2,4.5,7.9c2.9,1.7,6.5,2.7,9.8,3c6.3,0.6,12.2-2.5,14.6-8.5
					c2.3-5.7-0.1-12.5-5.2-15.9c-3.1-2-6.9-2.7-10.6-2.6c-3.7,0.1-7.5,0.8-10.5,3C228.8,106.9,230.3,109.5,231.9,108.4L231.9,108.4z
					"/>
			</g>
		</g>
		<g>
			<g>
				<path d="M238.7,119.2c3.4-1.3,7.2-1.7,10.8-0.9c1.3,0.2,1.8-1.7,0.5-1.9c-4-0.8-8.1-0.5-11.9,0.9c-0.5,0.2-0.9,0.7-0.7,1.2
					C237.6,119,238.1,119.4,238.7,119.2L238.7,119.2z"/>
			</g>
		</g>
		<g>
			<g>
				<path d="M257.6,118.1c4.3-1.1,8.6-2.1,13-3c4.2-0.8,8.6-1.6,12.8-0.5c-0.1-0.9-0.2-1.8-0.4-2.7c0,0,0,0,0,0
					c-1.9-0.4-2.7,2.5-0.8,2.9c0.9,0.2,1.6,0.1,2.3-0.3c1.1-0.6,0.9-2.4-0.4-2.7c-4.5-1.1-9-0.5-13.4,0.3c-4.7,0.9-9.3,1.9-13.9,3.1
					C254.9,115.8,255.7,118.6,257.6,118.1L257.6,118.1z"/>
			</g>
		</g>
		<g>
			<g>
				<path d="M174.7,113.9c-5-4.4-11.2-7.1-17.8-7.8c-0.8-0.1-1.5,0.8-1.5,1.5c0,0.9,0.7,1.4,1.5,1.5c5.8,0.6,11.3,3.1,15.7,6.9
					C174,117.2,176.2,115.1,174.7,113.9L174.7,113.9z"/>
			</g>
		</g>
		<g>
			<g>
				<path d="M207.8,133.6c-1.6,2-2.7,4.2-3.4,6.5c-0.2,0.8-0.2,1.6,0.6,2.1c0.6,0.3,1.4,0.2,2.1,0.2c1.4,0,2.8,0,4.1,0
					c0.5,0,1-0.5,1-1c0-0.5-0.5-1-1-1c-1.2,0-2.3,0-3.5,0c-0.6,0-1.1,0-1.7,0c-0.1,0-0.1,0,0,0c0,0-0.1,0-0.1,0
					c0.3,0.1,0.4,0.3,0.4,0.5c0,0,0-0.1,0-0.1c0.1-0.3,0.2-0.5,0.2-0.8c0.6-1.8,1.6-3.6,2.7-5.1c0.3-0.4,0.4-1,0-1.4
					C208.9,133.3,208.1,133.2,207.8,133.6L207.8,133.6z"/>
			</g>
		</g>
		<g>
			<g>
				<path d="M214.1,226.4c-8.4,5-16.6,10.4-24.4,16.2c-0.9,0.6-1.3,1.7-0.7,2.7c0.5,0.9,1.9,1.4,2.7,0.7c7.9-5.8,16-11.2,24.4-16.2
					C218.3,228.5,216.3,225,214.1,226.4L214.1,226.4z"/>
			</g>
		</g>
		<g>
			<g>
				<path d="M171.4,211.6c7,10.8,12.1,22.6,17.4,34.3c0.8,1.8,3.9,0.9,3.7-1c-0.1-0.6-0.1-1.2-0.2-1.8c-0.1-1.1-0.8-2-2-2
					c-1,0-2.1,0.9-2,2c0.1,0.6,0.1,1.2,0.2,1.8c1.2-0.3,2.5-0.7,3.7-1c-5.3-11.7-10.4-23.4-17.4-34.3
					C173.5,207.4,170,209.4,171.4,211.6L171.4,211.6z"/>
			</g>
		</g>
		<g>
			<g>
				<path d="M216.3,231c10.7,2.2,21,6,30.6,11.3c2.3,1.3,4.1-2,2-3.5c-0.2-0.2-0.5-0.3-0.7-0.5c-0.9-0.6-2.2-0.2-2.7,0.7
					c-0.6,1-0.2,2.1,0.7,2.7c0.2,0.2,0.5,0.3,0.7,0.5c0.7-1.2,1.3-2.3,2-3.5c-9.9-5.4-20.5-9.4-31.5-11.7
					C214.8,226.6,213.7,230.5,216.3,231L216.3,231z"/>
			</g>
		</g>
		<g>
			<g>
				<path d="M255.8,210.1c-0.3,11.3-7.3,21.1-9.6,31.9c-0.5,2.5,3.3,3.6,3.9,1.1c2.4-11.3,9.4-21.2,9.7-33
					C259.9,207.6,255.9,207.6,255.8,210.1L255.8,210.1z"/>
			</g>
		</g>
	</g>
</g>
</svg>
