<?xml version="1.0" encoding="utf-8"?>
<!-- Generator: Adobe Illustrator 25.1.0, SVG Export Plug-In . SVG Version: 6.00 Build 0)  -->
<svg version="1.1" id="Layer_2" xmlns="http://www.w3.org/2000/svg" xmlns:xlink="http://www.w3.org/1999/xlink" x="0px" y="0px"
	 viewBox="0 0 907.9 526" style="enable-background:new 0 0 907.9 526;" xml:space="preserve">
<g>
	<g>
		<path d="M46.9,216.9c-2.5-25.9,0.4-51.9-2-77.8c-1.1-12-3.4-23.2-7.8-34.3c-3.8-9.5-8.7-19.2-9.9-29.5c-7.5,2-14.9,4-22.4,6.1
			c12,18.6,29.6,35.1,50.5,42.9c22.4,8.3,44-1.3,61.3-15.8c14.5-12.2,32.4-30.8,26.4-51.7c-3.2-11-13.9-17.7-25.2-15.7
			c-10.5,1.9-16.9,11.5-19.9,21c-3.1,9.8-2.4,20.3-2.1,30.5c0.3,10.9,1,21.8,1.8,32.7c1.7,23.2,4.4,46.3,7.4,69.3
			c6.3,47.8,14.3,95.3,21.1,143c3,21.4,5.9,42.8,7.7,64.4c0.9,10.6,1.4,21.3,1.3,32c-0.1,10.1,0.1,20.2-2.7,29.8
			c-2.6,9-7.6,17.1-14.2,23.7c-2.9,2.9-6.5,6.1-10.1,7.7c-3.6,1.6-7.9,2-10.7,1.7c-9.7-1.1-18.5-7.3-25.4-13.9
			c-2.2-2.1-4.2-4.3-6.1-6.7c1.9,2.3-1-1.4-1.4-2c-1-1.5-2-3.1-2.9-4.6c-0.7-1.3-1.4-2.7-2.1-4c-0.3-0.5-0.5-1.1-0.7-1.6
			c1.2,2.5,0.3,0.7,0,0c-1.1-3-2.1-5.9-2.8-9c-0.4-1.5-0.7-2.9-0.9-4.4c-0.1-0.6-0.2-1.2-0.3-1.8c-0.6-3,0.2,2.7-0.1-0.4
			c-0.3-3.1-0.5-6.2-0.6-9.3c0-3.2,0.1-6.4,0.3-9.5c0.1-1.6,0.3-3.2,0.5-4.8c0.2-2.3,0-0.2-0.1,0.3c0.2-1.2,0.3-2.3,0.5-3.4
			c1.1-6.9,2.8-13.8,4.8-20.5c2.1-6.9,4.5-13.6,7.2-20.3c0.3-0.8,0.7-1.7,1-2.5c0.8-2-1.1,2.6,0.3-0.7c0.7-1.7,1.5-3.4,2.2-5.1
			c1.5-3.4,3.1-6.7,4.8-10.1c6.8-13.6,14.4-26.7,22.6-39.5c7.5-11.6,15.4-22.9,23.7-33.9c0.8-1.1,1.7-2.2,2.5-3.3
			c-1.9,2.5,1-1.2,1.4-1.8c1.9-2.4,3.9-4.9,5.8-7.3c3.1-3.8,6.3-7.6,9.6-11.3c5.6-6.4,11.6-12.1,17.4-18.2
			c15.9-16.7,27.6-37.1,34.8-59c3.5-10.8,5.6-21.9,6.7-33.1c-7.9,1.1-15.7,2.1-23.6,3.2c0.1,0.5,0.2,1.1,0.4,1.6
			c0.6,2.1-0.1-3.2-0.1-0.8c0,1.2,0.2,2.5,0.2,3.7c0.1,3.2,0,6.4-0.2,9.6c-0.3,7.5-0.8,15.1-0.9,22.6c-0.1,17.2,1.8,36.3,12,50.9
			c5.6,8,13,14.6,21.9,18.7c13.2,6,26.5,2.2,37.4-6.5c15.4-12.3,20.8-31.1,24.8-49.6c4.2-19.7,9.2-44.7,0.1-63.8
			c-5.8-12.2-26.2-3.6-21.9,9.2c6.4,19.3,9.7,39.5,16.5,58.7c6.2,17.5,16.3,33.8,34.9,39.6c16.5,5.2,36.6,1.8,48-11.9
			c11.2-13.3,14.8-30.7,17-47.5c2.8-20.6,3-41.5,5.7-62.2c0.8-5.8-5.1-11.2-10.4-11.8c-6-0.7-11.4,2.8-13.2,8.6
			c-5.1,16.7,3.9,32.1,15.6,43.4c5.6,5.4,11.8,10,18,14.6c4.1,3,10.1,7.4,12.9,9.5c5.1,4,10,8.2,14.6,12.7
			c4.9,4.8,7.5,7.6,10.7,13.3c0.4,0.7,1.7,3.3,1.4,2.7c-0.3-0.8,0.7,2.1,0.8,2.7c0.2,0.7,0.3,1.4,0.5,2.1c0-0.2-0.2-2-0.1-0.6
			c0,0.9-0.5,4.9,0.1,2.5c-0.8,3.5-3.3,7.7-6.8,9.8c-0.3,0.2-2.4,1.2-1.1,0.7c1.2-0.5-0.5,0.1-0.6,0.2c-0.7,0.2-1.3,0.4-2,0.5
			c0.5-0.1,2.3-0.1,0.2-0.2c-2.3-0.1,1.5,0.7-0.6,0c-0.6-0.2-1.2-0.3-1.8-0.5c1.4,0.4,1.2,0.6,0-0.2c-2.3-1.5,0.9,0.6-0.8-0.6
			c-0.3-0.2-1.7-1.8,0.2,0.3c-0.2-0.2-0.4-1-0.7-1.2c-1.1-0.5,0.6,1.6,0.1,0.3c-0.1-0.4-0.4-1-0.4-1.4c-0.1,3.4,0.4-2.7-0.1,0.4
			c0.1-0.6,1.3-4.1,0.6-2.6c0.5-1.1,1.4-2.6,1.9-3.3c2-2.7,5.3-5.8,7.9-8.4c6-5.9,12.3-11.5,18.5-17.1c11.7-10.5,23.5-21,32.5-33.9
			c9.6-13.8,14-31.3,16.2-47.7c2.6-19.2,2-38.4-0.3-57.6c-1.9-16-4.7-28.8-5.3-44.4c-0.6-15.4-24.4-15.5-24,0
			c0.9,36.3,2.5,72.5,7.5,108.5c2.4,17.2,5.6,34.2,10.1,51c3.4,12.6,6.6,25.5,12.4,37.3c6,12.3,16.3,22.2,30.4,23.5
			c11,1,20.7-6.5,27.9-13.9c10.2-10.4,17.9-23.2,23-36.8c6-16.1,6.3-34.1,7.1-51.1c2.1-42.7-1.3-85.5-8.4-127.7
			c-7.7,2.1-15.4,4.3-23.1,6.4c0.4,1.5,0.7,3,1,4.5c0.2,1,0.3,2,0.5,3c0.2,1.1,1,5.1,0.1,0.7c1,5.2,1.2,10.6,1.8,15.8
			c1.3,13.5,2.4,27.1,3.7,40.6c3,31.3,6.4,63.1,14.2,93.6c5.7,22.1,15,52.6,39.3,60.6c11.8,3.9,24.4,0.3,32.2-9.3
			c9-11,12.7-25.6,15-39.4c2.9-18,3.9-36.3,3-54.5c-0.6-13.2-1.2-28-7.1-40c-5.1-10.4-23.5-5.7-22.4,6.1c2.9,30.6,3.8,62.4,16.2,91
			c6.5,14.8,17.4,27.2,33.3,32c25.1,7.5,40-22.6,46.3-41.6c8.7-26.3,5.7-54.7,8.7-81.9c0.6-5.8-5.1-11.1-10.4-11.8
			c-5.6-0.7-11.9,2.7-13.2,8.6c-4.3,20.1-3.7,41.4-2.9,61.8c0.8,20.6,2.4,41.2,4.5,61.8c1.7,16.8,4.5,33.3,6.9,50
			c5.2,36,8.4,72.3,10,108.7c0.8,18.6,1.1,37.1,1,55.7c-0.1,9-0.2,18-0.5,27c-0.2,6.9-0.6,13.7-2.9,20.3
			c-3.9,11.1-13,14.1-23.5,13.4c-4.3-0.3-10-2.3-14.6-5.6c-4.8-3.4-8.6-8.2-11.6-13.3c-15.3-26-12.1-60.6-3.3-88.4
			c9.8-30.8,28.6-58.1,49.2-82.7c21.3-25.6,44.1-50.8,69.3-72.5c24-20.6,51.8-37.6,82.9-44.6c7.3-1.7,14.6-2.6,22.2-3
			c6.5-0.3,12-5.3,12-12c0-6.3-5.5-12.3-12-12c-73.9,3.4-129.2,56.9-175.6,109c-46.5,52.1-93.8,119.9-75.3,193.7
			c7.7,30.6,32.1,59.5,66.5,55c17-2.2,30.1-12.5,36.3-28.4c6.3-16.3,4.9-35.7,5-52.9c0.4-38.8-1.3-77.6-4.9-116.2
			c-1.9-19.9-4.3-39.7-7.2-59.5c-0.7-4.5-1.3-9-2-13.5c-0.4-2.3-0.7-4.5-1.1-6.8c-0.2-1.3-0.3-2.6-0.6-3.9c-0.6-2.3-0.1,0-0.1,0.2
			c-0.2-1.2-0.3-2.3-0.4-3.5c-2-17.3-3.6-34.6-4.7-51.9c-1.6-22.8-2.8-46.1-0.8-68.9c0.1-1.3,0.2-2.5,0.4-3.8c0-0.5,0.1-0.9,0.2-1.4
			c0.2-1.7-0.3,2.2-0.1,0.5c0.3-2,0.7-4,1.1-6.1c-7.9-1.1-15.7-2.1-23.6-3.2c-2.3,20.6-0.6,41.6-4.4,62c-1.8,9.6-5,18.4-9.3,27
			c-1.9,3.7-3.3,6.2-5.7,8.5c-1.1,1.1-2.5,1.8-3.7,2.8c0.6-0.5-0.4,0.2-0.8,0.3c1.7-0.6-1.1-0.6,0.5,0c-2.9-1.1-5.3-2.4-8.4-3.9
			c-0.5-0.2-1.8-1.4,0.3,0.3c-0.5-0.4-1-0.8-1.4-1.2c-1.1-1.1-2.2-2.2-3.2-3.3c0,0-1.9-2.5-0.9-1c0.9,1.3-0.3-0.5-0.5-0.8
			c-0.8-1.3-1.6-2.5-2.4-3.8c-0.7-1.2-1.3-2.4-2-3.7c-0.3-0.6-0.6-1.3-0.9-1.9c-1.2-2.5,0.4,1.3-0.5-1.1c-2.5-6.5-4.5-13.1-6-19.9
			c-0.8-3.5-1.5-7.1-2.1-10.6c-0.3-1.6-0.5-3.2-0.8-4.8c-0.1-0.8-0.2-1.6-0.4-2.4c-0.1-0.4-0.5-3.6-0.2-1.5
			c-1.8-13.5-2.5-27-3.8-40.5c-7.5,2-14.9,4-22.4,6.1c1.1,2.2-1-3.3-0.2-0.3c0.2,0.9,0.6,1.8,0.8,2.7c0.6,2.2,1.1,4.5,1.4,6.8
			c0.2,1.2,0.4,2.4,0.6,3.7c-0.6-3.8,0.1,0.7,0.2,1.6c0.3,3.2,0.6,6.5,0.8,9.7c0.9,14.6,0.6,29.4-0.9,43.9c-0.2,1.7-0.4,3.4-0.6,5.1
			c0.4-2.8-0.3,2.1-0.5,2.8c-0.6,3.5-1.3,7-2.1,10.5c-0.7,2.9-1.5,5.8-2.4,8.7c-0.5,1.5-1,2.9-1.6,4.3c-0.6,1.6,1.3-2.6,0.1-0.3
			c-0.4,0.7-0.6,1.4-1,2.1c-0.6,1.2-1.3,2.4-2,3.5c-0.3,0.5-0.7,0.9-1,1.4c-1.2,2,2-1.8,0.3-0.3c-0.7,0.6-1.6,1.5-2.2,2.2
			c-0.9,1.3,0.7-0.6,1.1-0.8c-0.6,0.4-1.3,0.8-1.9,1.2c-2.3,1.6,2.5-0.6-0.2,0c-2.9,0.7,2.9,0.2-0.1,0.1c-0.9,0-1.9-0.1-2.7-0.1
			c-2.1,0.2,3,0.8,1.1,0.1c-0.5-0.2-1-0.2-1.5-0.3c-0.1,0-2.5-0.7-2.5-0.8c0.1-0.6,3.1,1.7,0.9,0.3c-0.3-0.2-0.6-0.3-0.9-0.5
			c-0.8-0.4-1.7-1.4-2.5-1.7c-1.2-0.4,2.3,2.1,0.9,0.7c-0.5-0.5-1-0.9-1.5-1.4c-0.8-0.8-1.5-1.6-2.3-2.4c-0.3-0.3-0.5-0.7-0.8-0.9
			c-1.7-1.6,1.6,2.4,0.3,0.4c-1.3-2.1-2.8-4.1-4.1-6.3c-1.2-2.2-2.3-4.4-3.4-6.7c-0.3-0.7-0.6-1.4-1-2.2c0.1,0.3,1,2.6,0.3,0.6
			c-0.6-1.5-1.2-3.1-1.8-4.6c-2.2-6-4-12.2-5.6-18.4c-3.6-13.9-6.1-28-8.2-42.2c-0.3-1.7-0.5-3.5-0.7-5.2c-0.1-0.4-0.5-3.9-0.1-1
			c-0.1-0.9-0.2-1.7-0.3-2.6c-0.5-3.8-1-7.7-1.4-11.5c-0.9-7.4-1.6-14.8-2.4-22.1c-1.4-14.5-2.6-29.1-4-43.6
			c-1-10.1-1.7-20.6-4.2-30.5C566,7.8,558.9,4,552.8,5.7c-6.8,1.9-9.5,8.3-8.4,14.8c5.6,33.3,8.5,67,8.1,100.8
			c-0.2,16.5-0.8,33.7-2.8,49.8c-1.5,12.1-7,23.6-14.1,33.6c-2.3,3.3-5.9,7.3-9.7,10.8c-0.8,0.7-1.6,1.4-2.4,2.1
			c1.7-1.4-0.4,0.2-1.1,0.7c-0.7,0.5-1.5,0.9-2.2,1.3c-2.4,1.4,1.4-0.4-0.2,0.1c-2.3,0.8,0.4,0.1,0.5,0.1c-0.4,0-1,0.1-1.4,0
			c0.2,0,1.8,0.4,0.4,0.1c-0.5-0.1-3.2-0.9-2.1-0.5c1.2,0.5-0.3-0.2-0.5-0.3c-0.6-0.4-1.2-0.7-1.8-1.1c1.8,1.2-0.8-0.7-1.2-1.2
			c-0.4-0.4-2.1-2.4-1.6-1.8c0.5,0.6-1.1-1.6-1.4-2.1c-0.8-1.4-1.6-2.8-2.3-4.2c-1.4-2.8-1.2-2.4-2.3-5.3c-1.1-2.8-2-5.7-2.9-8.7
			c-1.7-5.5-3.1-11-4.6-16.5c-4.1-15.3-7.3-30.8-9.6-46.4c-5.4-35.8-6.6-72.2-7.6-108.4c-8,0-16,0-24,0c0.5,14.1,3.3,28.8,5,42.1
			c2.2,17.6,3.3,35.4,1.4,53.2c-1.6,15.3-6.2,32.7-15.3,44.4c-10.2,13.1-23.7,23.6-36,34.8c-11.8,10.8-27.9,23.6-27,41.3
			c0.7,15,13.9,26.4,28.8,25.9c15.5-0.6,29.8-14,32.7-29c2.9-15.3-5-29-14.7-40.2c-10.3-11.8-23.4-21.1-36-30.3
			c-6.6-4.8-13.1-9.8-18.6-16.1c-1.8-2-4.3-5.7-5.1-8c0.1,0.3-0.9-4.7-0.8-3c-0.2-2.8-0.1-2.1,0.7-4.8c-7.9-1.1-15.7-2.1-23.6-3.2
			c-2.1,16.4-2.7,33-4.3,49.5c-0.2,1.9-0.4,3.7-0.6,5.6c-0.1,0.7-0.7,5.5-0.4,3.5c-0.6,4.1-1.2,8.2-2.1,12.2
			c-0.7,3.4-1.6,6.8-2.7,10.1c-0.5,1.6-1.1,3.3-1.8,4.9c1-2.4-0.8,1.7-1.3,2.5c-0.7,1.4-1.6,2.7-2.4,4c-0.3,0.5-0.7,1-1.1,1.5
			c1.8-2.4,0-0.1-0.4,0.3c-0.9,0.9-1.9,1.8-2.9,2.7c-1.2,1.1,2.4-1.2,0-0.1c-0.8,0.4-1.5,0.9-2.3,1.3c-0.1,0.1-2.8,1.2-1,0.5
			c1.8-0.7-1,0.3-1.1,0.3c-0.6,0.2-1.2,0.3-1.8,0.5c-0.1,0-3.2,0.6-1.3,0.3c1.9-0.3-1.4,0.1-1.4,0.1c-0.7,0-1.4,0.1-2.1,0.1
			c-1.3,0-2.5-0.1-3.8-0.1c-2.5-0.1,1,0.4-1.5-0.2c-1.6-0.4-3.2-0.8-4.8-1.2c-0.6-0.2-2.7-1.2-0.6-0.1c-0.6-0.3-1.2-0.6-1.8-0.9
			c-0.7-0.4-4.6-3.1-2.6-1.5c-1.4-1.2-2.7-2.5-4-3.8c-0.4-0.4-1.8-2.2-0.4-0.3c-0.4-0.5-0.8-1.1-1.2-1.7c-1-1.5-1.9-3-2.8-4.6
			c-2.2-4.1-2.8-5.5-3.9-8.7c-7.1-19.5-10.4-40.1-16.9-59.8c-7.3,3.1-14.6,6.2-21.9,9.2c1.1,2.3-0.4-2.6,0,0
			c0.1,0.5,0.3,1.1,0.5,1.6c0.2,0.8,0.9,5.3,0.6,2.3c0.5,4,0.5,8,0.4,12.1c-0.1,4.1-0.5,8.2-1,12.3c0,0.2-0.3,2.3-0.1,0.6
			c-0.2,1.3-0.4,2.6-0.6,3.8c-0.3,2.1-0.7,4.2-1.1,6.3c-1.5,8-3.3,15.9-5.7,23.6c-0.8,2.7-1.8,5.3-2.8,7.9c1.5-3.8-0.9,1.5-1.6,2.7
			c-1.2,2-2.4,3.7-3.8,5.4c-2.9,3.2-5.6,5.8-9.6,7.5c1.5-0.6-2.5,0.7-2.2,0.6c-0.3,0.1-2.3,0.2-0.7,0.1c-1.4,0.1-2.7-0.3-3.9-0.9
			c-4.1-2.1-5.2-2.9-7.6-5.1c-1.3-1.2-2.4-2.5-3.6-3.8c0.3,0.4,1.2,1.8,0,0c-0.6-1-1.3-2-1.9-3c-0.8-1.3-1.5-2.7-2.1-4.1
			c-1.5-3,0.7,2.2-0.4-0.9c-0.2-0.7-0.5-1.3-0.7-2c-1.2-3.7-2-7.4-2.7-11.2c-0.6-3.4,0.2,1.6-0.1-0.5c-0.1-0.9-0.2-1.8-0.3-2.7
			c-0.2-1.8-0.3-3.6-0.4-5.3c-0.2-3.7-0.2-7.4-0.2-11.1c0.2-13.3,3.1-27.8-0.3-40.9c-1.5-5.7-7.4-9.5-13.2-8.6
			c-6.2,0.9-9.8,5.7-10.4,11.8c-1.9,20.5-9.6,40.6-20.9,57.8c-7,10.8-16.1,19.3-24.8,28.6c-15.1,16.3-28.8,34.1-41.5,52.2
			c-17.1,24.4-32.2,50.2-43.7,77.7c-10.7,25.8-18.1,54-14.1,82.1c1.8,12.3,6.2,24.4,13.4,34.5c11.2,15.6,28.2,29.5,47.6,32.4
			c24,3.5,43.9-12.5,55.4-32.3c11.1-19,11.5-40.5,11.2-61.9c-0.3-21.4-3-42.9-5.8-64.1c-2.9-22.8-6.3-45.5-9.7-68.2
			c-6.9-45.3-14.3-90.6-19.2-136.2c-2.4-22.1-4.2-44.3-4.8-66.5c-0.1-4.6-0.3-9.3-0.2-13.9c0-1.2,0.1-2.5,0.3-3.7
			c-0.1,0.6-0.3,1.8,0.2-0.6c0.2-1,0.5-2.1,0.7-3.1c0.1-0.5,1.5-4,0.7-2.4c0.3-0.7,0.8-1.4,1.1-2.1c1.5-3.1,0.1-0.1,0.1-0.3
			c0.2-0.3,0.5-0.5,0.7-0.8c-1.1,0.7-1.1,0.7,0,0c-0.3,0.4-2.3,0.5-0.1,0.2c-0.2,0-3.1-0.1-1.6,0.3c1.5,0.3-1.2-0.8-1.5-1
			c1.6,1.1,0.2,0.3-0.2-0.3c0.6,1.2,0.6,1.1-0.1-0.2c0.1,0.3,0.2,0.6,0.2,1c0-0.4-0.1-0.8-0.1-1.2c0.1,0.7,0.1,1.4,0.1,2.1
			c0,0.4-0.2,2.4,0.1,0.1c-0.2,1.9-0.8,3.8-1.5,5.6c0.7-1.7,0,0-0.2,0.3c-0.5,1-1.1,2-1.8,3c0.3-0.5,1.6-1.8-0.4,0.5
			c-1,1.2-2,2.3-3,3.4c-6.7,7.6-14.1,14.7-22.9,19.9c-7.7,4.5-15.9,6.6-23.2,4.8c-8.5-2.1-16.3-6.9-23.1-12.7
			c-7.2-6.2-13.5-13-18.6-20.8c-2.9-4.5-8.3-7-13.6-5.5c-4.7,1.3-9.4,6.4-8.8,11.6c2.6,22.3,15.6,41.3,17.7,63.8
			c2.4,25.9-0.5,51.9,2,77.8c0.6,6.4,5.1,12,12,12C40.9,228.9,47.5,223.4,46.9,216.9L46.9,216.9z"/>
	</g>
</g>
<g>
	<g>
		<path d="M382.5,115c41.8,17.8,86.9,1.1,128.2-10.1c43.7-11.8,87.8-23.5,132.7-29.5c24.7-3.3,49.7-4.7,74.6-3.7
			c6.5,0.3,12-5.7,12-12c0-6.7-5.5-11.7-12-12c-44.6-1.7-89.2,4.5-132.7,13.9c-43.1,9.3-85.1,22.6-127.9,32.7
			c-20.1,4.7-43.1,8.5-62.8,0.1c-6-2.5-12.9-1.8-16.4,4.3C375.2,103.6,376.5,112.4,382.5,115L382.5,115z"/>
	</g>
</g>
<g>
	<path d="M340.6,286.8h5.1l10.8,26.3l10.8-26.3h5.1l-12.8,30.5l15.2,35.3l27.8-66.4h5.7l-31,72.5h-4.8l-15.9-37.3l-16,37.3h-4.8
		l-30.9-72.5h5.6l27.9,66.4l15-35.3L340.6,286.8z"/>
	<path d="M467.6,354.1v4.7h-48.3v-72.5h47.4v4.7h-42.2v28.5h36.9v4.5h-36.9v30.1H467.6z"/>
	<path d="M504.6,286.3h4.5l30.6,72.5h-5.5l-9.9-23.9h-35l-9.9,23.9h-5.6L504.6,286.3z M522.6,330.6l-15.7-38l-15.8,38H522.6z"/>
	<path d="M550.8,358.8v-72.5h30.1c3.1,0,6,0.6,8.5,1.9c2.6,1.3,4.8,3,6.6,5.2c1.9,2.1,3.3,4.5,4.4,7.2c1.1,2.7,1.6,5.4,1.6,8.2
		c0,3.6-0.7,7-2.1,10.1c-1.4,3.1-3.4,5.8-6,7.9c-2.6,2.1-5.5,3.4-8.9,3.9l18.1,28.2h-6l-17.6-27.4H556v27.4H550.8z M556,326.6h25.4
		c3.1,0,5.9-0.9,8.2-2.6c2.3-1.7,4.1-3.9,5.4-6.6c1.3-2.7,1.9-5.6,1.9-8.7c0-3.1-0.7-6-2.2-8.7c-1.5-2.7-3.4-4.9-5.8-6.5
		c-2.4-1.7-5.1-2.5-8.1-2.5H556V326.6z"/>
</g>
</svg>
